<?xml version="1.0" standalone="no"?>
<!DOCTYPE svg PUBLIC "-//W3C//DTD SVG 20010904//EN"
 "http://www.w3.org/TR/2001/REC-SVG-20010904/DTD/svg10.dtd">
<svg version="1.0" xmlns="http://www.w3.org/2000/svg"
 width="81.000000pt" height="58.000000pt" viewBox="0 0 81.000000 58.000000"
 preserveAspectRatio="xMidYMid meet">

<g transform="translate(0.000000,58.000000) scale(0.100000,-0.100000)"
fill="#fff" stroke="none">
<path d="M295 518 c-33 -17 -73 -34 -90 -37 -21 -5 -38 -20 -60 -55 -26 -42
-29 -58 -29 -120 0 -48 6 -82 18 -106 18 -35 84 -110 97 -110 3 0 9 13 12 30
4 18 33 58 75 101 l68 72 59 -28 c76 -38 154 -41 187 -8 l22 22 -37 -6 c-41
-6 -87 3 -87 17 0 6 17 10 38 10 27 0 45 7 57 21 19 20 19 20 -10 9 -66 -25
-105 8 -105 91 0 40 -4 45 -67 94 -48 39 -79 39 -148 3z m163 -76 c3 -9 -2
-13 -14 -10 -9 1 -19 9 -22 16 -3 9 2 13 14 10 9 -1 19 -9 22 -16z"/>
<path d="M423 236 c11 -16 17 -46 17 -82 0 -54 -1 -56 -24 -52 -23 5 -36 -7
-36 -33 0 -5 20 -9 45 -9 51 0 62 12 90 97 18 56 14 73 -14 73 -10 0 -36 7
-56 16 l-38 16 16 -26z"/>
<path d="M268 148 c-20 -30 -13 -75 14 -84 29 -9 30 -2 16 56 l-14 53 -16 -25z"/>
</g>
</svg>
